# xmcd CD database file
# Copyright (C) 1993-1998 Ti Kan
#
# Track frame offsets:
#	182
#	23272
#	40610
#	59365
#	76465
#	98635
#	112470
#	128375
#	143515
#	154802
#	169900
#	187155
#	200662
#	213705
#	228805
#	247132
#
# Disc length: 3563 seconds
#
# Revision: 0
# Processed by: cddbd v1.4b41PL1 Copyright (c) Steve Scherf et al.
# Submitted via: CDmax 1.5
#
DISCID=da0de910
DTITLE=Norbert Langensiepen - Overnight
DYEAR=1900
DGENRE=
TTITLE0=I still remember  (Langensiepen)
TTITLE1=Tears in heaven  (Eric Clapton)
TTITLE2=Your song  (Elton John)
TTITLE3=Carnival  (Carlos Santana)
TTITLE4=Only You  (Vincent J. Martin)
TTITLE5=Largo (A. Vivaldi, vier Jahreszeiten)
TTITLE6=Now and forever  (R. Marks)
TTITLE7=Dust in the wind  (Kansas)
TTITLE8=Father and son  (Cat Stevens)
TTITLE9=Still got the blues  (Gary Moore)
TTITLE10=Easy going  (P. Schmidt, Langensiepen)
TTITLE11=Mr. Bo Jangels  (J. Jeff Worker)
TTITLE12=Old and wise  (Alan Parson)
TTITLE13=Streets of London  (Ralph Mc Tell)
TTITLE14=Over the years  (Langensiepen)
TTITLE15=Can you feel the love tonight  (Elton John)
EXTD=
EXTT0=
EXTT1=
EXTT2=
EXTT3=
EXTT4=
EXTT5=
EXTT6=
EXTT7=
EXTT8=
EXTT9=
EXTT10=
EXTT11=
EXTT12=
EXTT13=
EXTT14=
EXTT15=
PLAYORDER=
